# xmcd
#
# Track frame offsets:
# 150
# 16925
# 29810
# 49132
# 67770
# 79270
# 100037
# 119547
# 141620
# 158457
# 175070
# 198727
# 214880
#
# Disc length: 3103 seconds
#
#
# Revision: 2
# Processed by: cddbd v1.5.1PL0 Copyright (c) Steve Scherf et al.
# Submitted via: FreeRIP 2.942 
#
DISCID=b70c1d0d
DTITLE=Zé Geraldo - Acústico
DYEAR=1996
DGENRE=Other
TTITLE0=Reciclagem
TTITLE1=O Preço da Rosa
TTITLE2=Eu não tenho nada com isso, só estou falando
TTITLE3=A poeira, o Canto e Você
TTITLE4=Cachorro Urubu
TTITLE5=Talismã
TTITLE6=Cidadão
TTITLE7=Galho Seco
TTITLE8=Filhos da Noite
TTITLE9=Senhorita
TTITLE10=Negro Amor
TTITLE11=Peão de Trecho
TTITLE12=Ou Dá ou Desce
EXTD=Acustico com a participação do DouFel
EXTT0=
EXTT1=
EXTT2=
EXTT3=
EXTT4=
EXTT5=
EXTT6=
EXTT7=
EXTT8=
EXTT9=
EXTT10=
EXTT11=
EXTT12=
PLAYORDER=
